<svg xmlns="http://www.w3.org/2000/svg" viewBox="0 0 24 24" fill="orange" width="50" height="50">
    <path d="M6.76 4.84l-1.8-1.8c-.39-.39-1.02-.39-1.41 0s-.39 1.02 0 1.41l1.8 1.8c.39.39 1.02.39 1.41 0s.39-1.02 0-1.41zM1 13h4c.55 0 1-.45 1-1s-.45-1-1-1H1c-.55 0-1 .45-1 1s.45 1 1 1zm12-12c-.55 0-1 .45-1 1v4c0 .55.45 1 1 1s1-.45 1-1V2c0-.55-.45-1-1-1zm5.24 3.24c.39-.39.39-1.02 0-1.41s-1.02-.39-1.41 0l-1.8 1.8c-.39.39-.39 1.02 0 1.41s1.02.39 1.41 0l1.8-1.8zM23 12c0-.55-.45-1-1-1h-4c-.55 0-1 .45-1 1s.45 1 1 1h4c.55 0 1-.45 1-1zM17.66 6.76c.39-.39.39-1.02 0-1.41s-1.02-.39-1.41 0l-1.8 1.8c-.39.39-.39 1.02 0 1.41s1.02.39 1.41 0l1.8-1.8zM12 17c-2.76 0-5-2.24-5-5s2.24-5 5-5 5 2.24 5 5-2.24 5-5 5zm6.76 3.24l1.8 1.8c.39.39.39 1.02 0 1.41s-1.02.39-1.41 0l-1.8-1.8c-.39-.39-.39-1.02 0-1.41s1.02-.39 1.41 0zM13 22c.55 0 1-.45 1-1v-4c0-.55-.45-1-1-1s-1 .45-1 1v4c0 .55.45 1 1 1zm-7.24-2.24l-1.8-1.8c-.39-.39-1.02-.39-1.41 0s-.39 1.02 0 1.41l1.8 1.8c.39.39 1.02.39 1.41 0s.39-1.02 0-1.41z"/>
</svg>
